<svg xmlns="http://www.w3.org/2000/svg" width="8" height="14" viewBox="0 0 8 14"><g transform="translate(-1053 -4968)"><g transform="translate(823.424 4862.761)"><path d="M229.576,109.869h1.714v-1.406a2.809,2.809,0,0,1,3.213-3.223,12.667,12.667,0,0,1,3.073.26l-.428,2.144a6.8,6.8,0,0,0-1.381-.174c-.667,0-1.263.2-1.263.764v1.635h2.733l-.19,2.095H234.5v7.276H231.29v-7.276h-1.714Z" fill="#fff"/></g><path d="M1054.714,4982v-7.276H1053v-2.1h1.714v-1.405a2.81,2.81,0,0,1,3.213-3.224,12.655,12.655,0,0,1,3.072.26l-.428,2.144a6.823,6.823,0,0,0-1.382-.173c-.666,0-1.263.2-1.263.764v1.634h2.733l-.19,2.1h-2.543V4982Z" fill="#626262"/></g></svg>