<svg xmlns="http://www.w3.org/2000/svg" width="17" height="16.999" viewBox="0 0 17 16.999"><g transform="translate(-970 -3761)"><g transform="translate(677.075 3633.25)"><path d="M298.508,143.909c-2.1,0-3.612-1.278-3.612-2.816,0-1.506,1.879-2.76,3.976-2.738a4.714,4.714,0,0,1,1.359.21c1.138.764,1.955,1.193,2.185,2.063a2.262,2.262,0,0,1,.067.543c0,1.537-1.027,2.738-3.975,2.738m.551-9.012c-1.406-.04-2.745-1.517-2.988-3.3s.7-3.145,2.109-3.1,2.745,1.469,2.988,3.251-.7,3.194-2.109,3.152m2.919,2.639c-.494-.337-1.438-1.156-1.438-1.638,0-.565.167-.842,1.049-1.505a3.5,3.5,0,0,0,1.542-2.75,3.118,3.118,0,0,0-1.76-3.042H303.1l1.222-.851h-5.463c-2.449,0-4.754,1.788-4.754,3.858a3.885,3.885,0,0,0,4.161,3.826c.174,0,.342,0,.507-.015a2.085,2.085,0,0,0-.278.983,2.022,2.022,0,0,0,.744,1.455c-.314,0-.617.009-.947.009-3.034,0-5.368,1.861-5.368,3.792,0,1.9,2.56,3.091,5.592,3.091,3.459,0,5.369-1.89,5.369-3.792a3.638,3.638,0,0,0-1.91-3.421m7.949-2.483H307.8V133h-1.712v2.049H303.96V136.7h2.126v2.05H307.8V136.7h2.127Z" fill="#fff"/></g><path d="M970,3774.909c0-1.931,2.334-3.793,5.368-3.793.33,0,.632-.01.947-.01a2.019,2.019,0,0,1-.744-1.455,2.092,2.092,0,0,1,.278-.982c-.165.011-.333.015-.507.015a3.885,3.885,0,0,1-4.161-3.826c0-2.071,2.306-3.858,4.754-3.858H981.4l-1.222.85h-1.732a3.118,3.118,0,0,1,1.761,3.041,3.5,3.5,0,0,1-1.543,2.751c-.882.664-1.049.94-1.049,1.5,0,.482.943,1.3,1.437,1.638a3.637,3.637,0,0,1,1.911,3.422c0,1.9-1.911,3.792-5.369,3.792C972.56,3778,970,3776.811,970,3774.909Zm1.969-.566c0,1.537,1.514,2.816,3.612,2.816,2.949,0,3.976-1.2,3.976-2.738a2.254,2.254,0,0,0-.067-.542c-.23-.87-1.048-1.3-2.185-2.063a4.737,4.737,0,0,0-1.359-.211h-.054C973.817,3771.6,971.97,3772.85,971.97,3774.343Zm1.176-9.494c.243,1.781,1.582,3.258,2.988,3.3s2.351-1.37,2.109-3.152-1.581-3.21-2.989-3.25h-.06C973.82,3761.744,972.906,3763.092,973.145,3764.849ZM983.161,3772v-2.05h-2.126v-1.65h2.126v-2.049h1.712v2.049H987v1.65h-2.128V3772Z" fill="#b4ad9e"/></g></svg>