<svg xmlns="http://www.w3.org/2000/svg" width="15" height="15" viewBox="0 0 15 15"><g transform="translate(-1114 -4968)"><g transform="translate(595.178 4810.24)"><path d="M530.922,157.76h-9.2a2.9,2.9,0,0,0-2.9,2.9v9.2a2.9,2.9,0,0,0,2.9,2.9h9.2a2.9,2.9,0,0,0,2.9-2.9v-9.2A2.9,2.9,0,0,0,530.922,157.76Zm.833,1.729h.332v2.543l-2.535.008-.009-2.543Zm-7.573,4.232a2.635,2.635,0,1,1-.5,1.54A2.635,2.635,0,0,1,524.182,163.72Zm8.178,6.141a1.438,1.438,0,0,1-1.438,1.437h-9.2a1.438,1.438,0,0,1-1.438-1.437V163.72h2.239a4.1,4.1,0,1,0,7.6,0h2.239Z" fill="#fff"/></g><path d="M1116.9,4983a2.9,2.9,0,0,1-2.9-2.9v-9.2a2.9,2.9,0,0,1,2.9-2.9h9.2a2.9,2.9,0,0,1,2.9,2.9v9.2a2.9,2.9,0,0,1-2.9,2.9Zm-1.437-2.9a1.438,1.438,0,0,0,1.437,1.437h9.2a1.438,1.438,0,0,0,1.438-1.437v-6.142h-2.24a4.1,4.1,0,1,1-7.6,0h-2.239Zm3.9-6.142a2.632,2.632,0,1,0,2.14-1.1A2.629,2.629,0,0,0,1119.36,4973.959Zm7.573-4.23-2.212.006.009,2.542,2.535-.008v-2.542Z" fill="#626262"/></g></svg>