<svg xmlns="http://www.w3.org/2000/svg" width="18.001" height="16.999" viewBox="0 0 18.001 16.999"><g transform="translate(-1030 -3761)"><g transform="translate(839.419 3633.25)"><path d="M199.581,127.75a8.761,8.761,0,0,0-9,8.5,8.5,8.5,0,0,0,5.388,7.784,7.076,7.076,0,0,1,.157-1.952l1.158-4.631a3.115,3.115,0,0,1-.288-1.345,1.979,1.979,0,0,1,1.736-2.2,1.165,1.165,0,0,1,1.215,1.276,17.449,17.449,0,0,1-.795,3.016,1.338,1.338,0,0,0,1.42,1.637c1.7,0,2.853-2.068,2.853-4.519,0-1.862-1.329-3.257-3.744-3.257a4.15,4.15,0,0,0-4.431,4.069,2.368,2.368,0,0,0,.593,1.667c.167.187.189.261.13.475-.043.155-.142.533-.183.682a.314.314,0,0,1-.451.213,3.239,3.239,0,0,1-1.843-3.247c0-2.414,2.155-5.311,6.431-5.311,3.436,0,5.7,2.35,5.7,4.87,0,3.335-1.962,5.825-4.856,5.825a2.625,2.625,0,0,1-2.2-1.059s-.523,1.958-.634,2.336a6.888,6.888,0,0,1-.906,1.82,9.477,9.477,0,0,0,2.551.349,8.514,8.514,0,1,0,0-17" fill="#fff"/></g><path d="M1036.45,3777.65a6.905,6.905,0,0,0,.906-1.819c.111-.378.634-2.336.634-2.336a2.625,2.625,0,0,0,2.2,1.058c2.894,0,4.855-2.49,4.855-5.825,0-2.519-2.26-4.87-5.7-4.87-4.277,0-6.432,2.9-6.432,5.311a3.239,3.239,0,0,0,1.843,3.248.312.312,0,0,0,.45-.212c.042-.149.14-.527.183-.682.06-.214.037-.288-.13-.475a2.367,2.367,0,0,1-.593-1.667,4.15,4.15,0,0,1,4.432-4.069c2.415,0,3.744,1.395,3.744,3.257,0,2.451-1.148,4.519-2.854,4.519a1.338,1.338,0,0,1-1.42-1.637,17.413,17.413,0,0,0,.8-3.016,1.166,1.166,0,0,0-1.215-1.276,1.979,1.979,0,0,0-1.735,2.2,3.118,3.118,0,0,0,.287,1.345l-1.158,4.632a7.088,7.088,0,0,0-.156,1.951A8.5,8.5,0,0,1,1030,3769.5a9.015,9.015,0,1,1,9,8.5A9.433,9.433,0,0,1,1036.45,3777.65Z" fill="#b4ad9e"/></g></svg>