<svg xmlns="http://www.w3.org/2000/svg" width="11" height="16.999" viewBox="0 0 11 16.999"><g transform="translate(-1003 -3761)"><g transform="translate(543.195 3633.205)"><path d="M465.977,127.8v4.3h4.236v2.669h-4.236v4.359a6.6,6.6,0,0,0,.164,1.9,1.3,1.3,0,0,0,.613.671,2.671,2.671,0,0,0,1.354.338,5.051,5.051,0,0,0,2.7-.84v2.683a11.156,11.156,0,0,1-2.071.719,9.159,9.159,0,0,1-2.006.207,7.262,7.262,0,0,1-2.166-.294,4.733,4.733,0,0,1-1.6-.84,3.05,3.05,0,0,1-.922-1.159,4.8,4.8,0,0,1-.256-1.779V134.76H459.8v-2.4a5.365,5.365,0,0,0,1.8-.934,4.7,4.7,0,0,0,1.2-1.46,6.373,6.373,0,0,0,.626-2.166Z" fill="#fff"/></g><path d="M1007.757,3777.706a4.735,4.735,0,0,1-1.6-.839,3.054,3.054,0,0,1-.922-1.16,4.788,4.788,0,0,1-.256-1.78v-5.962H1003v-2.4a5.364,5.364,0,0,0,1.8-.934,4.7,4.7,0,0,0,1.2-1.46,6.378,6.378,0,0,0,.626-2.166h2.539v4.3h4.236v2.669h-4.236v4.359a6.6,6.6,0,0,0,.164,1.9,1.3,1.3,0,0,0,.613.671,2.673,2.673,0,0,0,1.354.337,5.05,5.05,0,0,0,2.7-.839v2.682a11.159,11.159,0,0,1-2.071.719,9.139,9.139,0,0,1-2.006.207A7.247,7.247,0,0,1,1007.757,3777.706Z" fill="#b4ad9e"/></g></svg>