<svg xmlns="http://www.w3.org/2000/svg" width="18.001" height="13" viewBox="0 0 18.001 13"><g transform="translate(-1078 -4968)"><g transform="translate(941.654 4845.694)"><path d="M154.347,123.845a8.1,8.1,0,0,1-2.121.516,3.38,3.38,0,0,0,1.624-1.815,7.971,7.971,0,0,1-2.345.8,3.915,3.915,0,0,0-2.7-1.036,3.506,3.506,0,0,0-3.693,3.282,2.922,2.922,0,0,0,.1.747,10.966,10.966,0,0,1-7.611-3.43,3,3,0,0,0-.5,1.652,3.2,3.2,0,0,0,1.643,2.731,4.046,4.046,0,0,1-1.674-.409v.04a3.406,3.406,0,0,0,2.962,3.218,4.031,4.031,0,0,1-.973.115,4.1,4.1,0,0,1-.694-.058,3.664,3.664,0,0,0,3.448,2.278,8.012,8.012,0,0,1-4.585,1.406,8.5,8.5,0,0,1-.881-.045,11.439,11.439,0,0,0,5.661,1.473c6.793,0,10.506-5,10.506-9.337,0-.143,0-.285-.01-.425a7.089,7.089,0,0,0,1.843-1.7" fill="#fff"/></g><path d="M1078,4979.526a8.445,8.445,0,0,0,.881.046,8.006,8.006,0,0,0,4.585-1.406,3.663,3.663,0,0,1-3.448-2.278,4.19,4.19,0,0,0,1.666-.057,3.407,3.407,0,0,1-2.963-3.218v-.04a4.063,4.063,0,0,0,1.674.409,3.2,3.2,0,0,1-1.643-2.731,3,3,0,0,1,.5-1.651,10.965,10.965,0,0,0,7.61,3.43,2.957,2.957,0,0,1-.095-.748,3.505,3.505,0,0,1,3.693-3.281,3.907,3.907,0,0,1,2.7,1.036,7.964,7.964,0,0,0,2.345-.8,3.375,3.375,0,0,1-1.624,1.815,8.107,8.107,0,0,0,2.123-.517,7.111,7.111,0,0,1-1.843,1.7c.006.139.009.282.009.425,0,4.336-3.713,9.337-10.506,9.337A11.435,11.435,0,0,1,1078,4979.526Z" fill="#626262"/></g></svg>